# xmcd CD database file
#
# Track frame offsets:
#	150
#	9225
#	20854
#	31127
#	40897
#	52763
#	63828
#	71961
#	83649
#	92736
#	103965
#	114482
#
# Disc length: 1637 seconds
#
# Revision: 0
# Processed by: cddbd v1.5.1PL2 Copyright (c) Steve Scherf et al.
# Submitted via: CDex 1.51
#
DISCID=9406630c
DTITLE=Art Tatum - Fine and Dandy
DYEAR=2005
DGENRE=Jazz
TTITLE0=(Back Home Again) In Indiana
TTITLE1=What is This Thing Called Love
TTITLE2=Crazy Rhythm
TTITLE3=You Took Advantage of Me
TTITLE4=I Got a Right to Sing the Blues
TTITLE5=I've Got the World on a String
TTITLE6=Fine and Dandy
TTITLE7=I'm Coming Virginia
TTITLE8=My Gal
TTITLE9=Can't We Be Friends
TTITLE10=I Guess I'll Have to Change My Plans
TTITLE11=All God's Children Got Rhythm
EXTD=YEAR: 2005
EXTT0=
EXTT1=
EXTT2=
EXTT3=
EXTT4=
EXTT5=
EXTT6=
EXTT7=
EXTT8=
EXTT9=
EXTT10=
EXTT11=
PLAYORDER=
